<?xml version="1.0" encoding="UTF-8"?>
<svg width="24px" height="24px" viewBox="0 0 24 24" version="1.1" xmlns="http://www.w3.org/2000/svg" xmlns:xlink="http://www.w3.org/1999/xlink">
    <title>C5117B5B-D0CB-4A70-B95F-26046B6A81D0</title>
    <g id="Page-1" stroke="none" stroke-width="1" fill="none" fill-rule="evenodd">
        <g id="Desktop-Navigation" transform="translate(-1229.000000, -4985.000000)" fill="#001489">
            <path d="M1231.81791,4985.48348 L1241,4994.666 L1250.18209,4985.48348 C1250.82673,4984.83884 1251.87189,4984.83884 1252.51652,4985.48348 C1253.16116,4986.12811 1253.16116,4987.17327 1252.51652,4987.81791 L1243.334,4997 L1252.51652,5006.18209 C1253.16116,5006.82673 1253.16116,5007.87189 1252.51652,5008.51652 C1251.87189,5009.16116 1250.82673,5009.16116 1250.18209,5008.51652 L1241,4999.334 L1231.81791,5008.51652 C1231.17327,5009.16116 1230.12811,5009.16116 1229.48348,5008.51652 C1228.83884,5007.87189 1228.83884,5006.82673 1229.48348,5006.18209 L1238.666,4997 L1229.48348,4987.81791 C1228.83884,4987.17327 1228.83884,4986.12811 1229.48348,4985.48348 C1230.12811,4984.83884 1231.17327,4984.83884 1231.81791,4985.48348 Z" id="Combined-Shape"></path>
        </g>
    </g>
</svg>
